<?xml version="1.0" encoding="UTF-8" standalone="no"?>
<!DOCTYPE svg PUBLIC "-//W3C//DTD SVG 1.1//EN"
 "http://www.w3.org/Graphics/SVG/1.1/DTD/svg11.dtd">
<!-- Generated by graphviz version 7.0.6 (20230106.0513)
 -->
<!-- Title: mygraph Pages: 1 -->
<svg width="1108pt" height="277pt"
 viewBox="0.00 0.00 1107.50 277.00" xmlns="http://www.w3.org/2000/svg" xmlns:xlink="http://www.w3.org/1999/xlink">
<g id="graph0" class="graph" transform="scale(1 1) rotate(0) translate(4 273)">
<title>mygraph</title>
<polygon fill="white" stroke="none" points="-4,4 -4,-273 1103.5,-273 1103.5,4 -4,4"/>
<!-- //tests/integration/preprocessing:test_punctuation_stop_words_input_output -->
<g id="node1" class="node">
<title>//tests/integration/preprocessing:test_punctuation_stop_words_input_output</title>
<polygon fill="none" stroke="black" points="748,-269 321,-269 321,-233 748,-233 748,-269"/>
<text text-anchor="middle" x="534.5" y="-247.3" font-family="Times,serif" font-size="14.00">//tests/integration/preprocessing:test_punctuation_stop_words_input_output</text>
</g>
<!-- //src/preprocessing:punctuation -->
<g id="node2" class="node">
<title>//src/preprocessing:punctuation</title>
<polygon fill="none" stroke="black" points="294.5,-188.5 108.5,-188.5 108.5,-152.5 294.5,-152.5 294.5,-188.5"/>
<text text-anchor="middle" x="201.5" y="-166.8" font-family="Times,serif" font-size="14.00">//src/preprocessing:punctuation</text>
</g>
<!-- //tests/integration/preprocessing:test_punctuation_stop_words_input_output&#45;&gt;//src/preprocessing:punctuation -->
<g id="edge1" class="edge">
<title>//tests/integration/preprocessing:test_punctuation_stop_words_input_output&#45;&gt;//src/preprocessing:punctuation</title>
<path fill="none" stroke="black" d="M456.62,-232.53C411.79,-222.37 354.42,-209.2 303.5,-197 296.43,-195.3 289.09,-193.52 281.73,-191.71"/>
<polygon fill="black" stroke="black" points="282.6,-188.32 272.06,-189.33 280.93,-195.12 282.6,-188.32"/>
</g>
<!-- //data:ThePhilosophersStonePunctuationsStopWordsRemoved.txt\n//tests/integration/preprocessing:test_punctuation_stop_words_input_output.py\n//data:ThePhilosophersStone.txt -->
<g id="node3" class="node">
<title>//data:ThePhilosophersStonePunctuationsStopWordsRemoved.txt\n//tests/integration/preprocessing:test_punctuation_stop_words_input_output.py\n//data:ThePhilosophersStone.txt</title>
<polygon fill="none" stroke="black" points="756.5,-197 312.5,-197 312.5,-144 756.5,-144 756.5,-197"/>
<text text-anchor="middle" x="534.5" y="-181.8" font-family="Times,serif" font-size="14.00">//data:ThePhilosophersStonePunctuationsStopWordsRemoved.txt</text>
<text text-anchor="middle" x="534.5" y="-166.8" font-family="Times,serif" font-size="14.00">//tests/integration/preprocessing:test_punctuation_stop_words_input_output.py</text>
<text text-anchor="middle" x="534.5" y="-151.8" font-family="Times,serif" font-size="14.00">//data:ThePhilosophersStone.txt</text>
</g>
<!-- //tests/integration/preprocessing:test_punctuation_stop_words_input_output&#45;&gt;//data:ThePhilosophersStonePunctuationsStopWordsRemoved.txt\n//tests/integration/preprocessing:test_punctuation_stop_words_input_output.py\n//data:ThePhilosophersStone.txt -->
<g id="edge2" class="edge">
<title>//tests/integration/preprocessing:test_punctuation_stop_words_input_output&#45;&gt;//data:ThePhilosophersStonePunctuationsStopWordsRemoved.txt\n//tests/integration/preprocessing:test_punctuation_stop_words_input_output.py\n//data:ThePhilosophersStone.txt</title>
<path fill="none" stroke="black" d="M534.5,-232.58C534.5,-225.44 534.5,-216.88 534.5,-208.46"/>
<polygon fill="black" stroke="black" points="538,-208.73 534.5,-198.73 531,-208.73 538,-208.73"/>
</g>
<!-- //src/preprocessing:stop_words -->
<g id="node4" class="node">
<title>//src/preprocessing:stop_words</title>
<polygon fill="none" stroke="black" points="960,-188.5 775,-188.5 775,-152.5 960,-152.5 960,-188.5"/>
<text text-anchor="middle" x="867.5" y="-166.8" font-family="Times,serif" font-size="14.00">//src/preprocessing:stop_words</text>
</g>
<!-- //tests/integration/preprocessing:test_punctuation_stop_words_input_output&#45;&gt;//src/preprocessing:stop_words -->
<g id="edge3" class="edge">
<title>//tests/integration/preprocessing:test_punctuation_stop_words_input_output&#45;&gt;//src/preprocessing:stop_words</title>
<path fill="none" stroke="black" d="M612.38,-232.53C657.21,-222.37 714.58,-209.2 765.5,-197 772.57,-195.3 779.91,-193.52 787.27,-191.71"/>
<polygon fill="black" stroke="black" points="788.07,-195.12 796.94,-189.33 786.4,-188.32 788.07,-195.12"/>
</g>
<!-- //src/preprocessing/filter:filter -->
<g id="node8" class="node">
<title>//src/preprocessing/filter:filter</title>
<polygon fill="none" stroke="black" points="187,-108 8,-108 8,-72 187,-72 187,-108"/>
<text text-anchor="middle" x="97.5" y="-86.3" font-family="Times,serif" font-size="14.00">//src/preprocessing/filter:filter</text>
</g>
<!-- //src/preprocessing:punctuation&#45;&gt;//src/preprocessing/filter:filter -->
<g id="edge7" class="edge">
<title>//src/preprocessing:punctuation&#45;&gt;//src/preprocessing/filter:filter</title>
<path fill="none" stroke="black" d="M178.42,-152.08C164.01,-141.2 145.26,-127.05 129.44,-115.11"/>
<polygon fill="black" stroke="black" points="131.81,-112.52 121.72,-109.28 127.6,-118.1 131.81,-112.52"/>
</g>
<!-- //src/preprocessing:punctuation.py -->
<g id="node9" class="node">
<title>//src/preprocessing:punctuation.py</title>
<polygon fill="none" stroke="black" points="408,-108 205,-108 205,-72 408,-72 408,-108"/>
<text text-anchor="middle" x="306.5" y="-86.3" font-family="Times,serif" font-size="14.00">//src/preprocessing:punctuation.py</text>
</g>
<!-- //src/preprocessing:punctuation&#45;&gt;//src/preprocessing:punctuation.py -->
<g id="edge8" class="edge">
<title>//src/preprocessing:punctuation&#45;&gt;//src/preprocessing:punctuation.py</title>
<path fill="none" stroke="black" d="M224.8,-152.08C239.35,-141.2 258.28,-127.05 274.25,-115.11"/>
<polygon fill="black" stroke="black" points="276.14,-118.07 282.05,-109.28 271.95,-112.46 276.14,-118.07"/>
</g>
<!-- //src/preprocessing:stop_words.py -->
<g id="node5" class="node">
<title>//src/preprocessing:stop_words.py</title>
<polygon fill="none" stroke="black" points="854.5,-108 652.5,-108 652.5,-72 854.5,-72 854.5,-108"/>
<text text-anchor="middle" x="753.5" y="-86.3" font-family="Times,serif" font-size="14.00">//src/preprocessing:stop_words.py</text>
</g>
<!-- //src/preprocessing:stop_words&#45;&gt;//src/preprocessing:stop_words.py -->
<g id="edge4" class="edge">
<title>//src/preprocessing:stop_words&#45;&gt;//src/preprocessing:stop_words.py</title>
<path fill="none" stroke="black" d="M842.2,-152.08C826.26,-141.1 805.47,-126.79 788.03,-114.77"/>
<polygon fill="black" stroke="black" points="790.2,-112.02 779.98,-109.23 786.23,-117.79 790.2,-112.02"/>
</g>
<!-- //src/preprocessing/filter:filter_words -->
<g id="node6" class="node">
<title>//src/preprocessing/filter:filter_words</title>
<polygon fill="none" stroke="black" points="1090.5,-108 872.5,-108 872.5,-72 1090.5,-72 1090.5,-108"/>
<text text-anchor="middle" x="981.5" y="-86.3" font-family="Times,serif" font-size="14.00">//src/preprocessing/filter:filter_words</text>
</g>
<!-- //src/preprocessing:stop_words&#45;&gt;//src/preprocessing/filter:filter_words -->
<g id="edge5" class="edge">
<title>//src/preprocessing:stop_words&#45;&gt;//src/preprocessing/filter:filter_words</title>
<path fill="none" stroke="black" d="M892.8,-152.08C908.74,-141.1 929.53,-126.79 946.97,-114.77"/>
<polygon fill="black" stroke="black" points="948.77,-117.79 955.02,-109.23 944.8,-112.02 948.77,-117.79"/>
</g>
<!-- //src/preprocessing/filter:filter_words.py -->
<g id="node7" class="node">
<title>//src/preprocessing/filter:filter_words.py</title>
<polygon fill="none" stroke="black" points="1099.5,-36 863.5,-36 863.5,0 1099.5,0 1099.5,-36"/>
<text text-anchor="middle" x="981.5" y="-14.3" font-family="Times,serif" font-size="14.00">//src/preprocessing/filter:filter_words.py</text>
</g>
<!-- //src/preprocessing/filter:filter_words&#45;&gt;//src/preprocessing/filter:filter_words.py -->
<g id="edge6" class="edge">
<title>//src/preprocessing/filter:filter_words&#45;&gt;//src/preprocessing/filter:filter_words.py</title>
<path fill="none" stroke="black" d="M981.5,-71.7C981.5,-64.41 981.5,-55.73 981.5,-47.54"/>
<polygon fill="black" stroke="black" points="985,-47.62 981.5,-37.62 978,-47.62 985,-47.62"/>
</g>
<!-- //src/preprocessing/filter:filter.py -->
<g id="node10" class="node">
<title>//src/preprocessing/filter:filter.py</title>
<polygon fill="none" stroke="black" points="195,-36 0,-36 0,0 195,0 195,-36"/>
<text text-anchor="middle" x="97.5" y="-14.3" font-family="Times,serif" font-size="14.00">//src/preprocessing/filter:filter.py</text>
</g>
<!-- //src/preprocessing/filter:filter&#45;&gt;//src/preprocessing/filter:filter.py -->
<g id="edge9" class="edge">
<title>//src/preprocessing/filter:filter&#45;&gt;//src/preprocessing/filter:filter.py</title>
<path fill="none" stroke="black" d="M97.5,-71.7C97.5,-64.41 97.5,-55.73 97.5,-47.54"/>
<polygon fill="black" stroke="black" points="101,-47.62 97.5,-37.62 94,-47.62 101,-47.62"/>
</g>
</g>
</svg>
