<?xml version="1.0" encoding="UTF-8" standalone="no"?>
<!DOCTYPE svg PUBLIC "-//W3C//DTD SVG 1.1//EN"
 "http://www.w3.org/Graphics/SVG/1.1/DTD/svg11.dtd">
<!-- Generated by graphviz version 7.0.6 (20230106.0513)
 -->
<!-- Title: mygraph Pages: 1 -->
<svg width="1651pt" height="260pt"
 viewBox="0.00 0.00 1650.50 260.00" xmlns="http://www.w3.org/2000/svg" xmlns:xlink="http://www.w3.org/1999/xlink">
<g id="graph0" class="graph" transform="scale(1 1) rotate(0) translate(4 256)">
<title>mygraph</title>
<polygon fill="white" stroke="none" points="-4,4 -4,-256 1646.5,-256 1646.5,4 -4,4"/>
<!-- //tests/unittest/preprocessing:test_punctuation -->
<g id="node1" class="node">
<title>//tests/unittest/preprocessing:test_punctuation</title>
<polygon fill="none" stroke="black" points="398,-252 135,-252 135,-216 398,-216 398,-252"/>
<text text-anchor="middle" x="266.5" y="-230.3" font-family="Times,serif" font-size="14.00">//tests/unittest/preprocessing:test_punctuation</text>
</g>
<!-- //tests/unittest/preprocessing:test_punctuation.py -->
<g id="node2" class="node">
<title>//tests/unittest/preprocessing:test_punctuation.py</title>
<polygon fill="none" stroke="black" points="281,-180 0,-180 0,-144 281,-144 281,-180"/>
<text text-anchor="middle" x="140.5" y="-158.3" font-family="Times,serif" font-size="14.00">//tests/unittest/preprocessing:test_punctuation.py</text>
</g>
<!-- //tests/unittest/preprocessing:test_punctuation&#45;&gt;//tests/unittest/preprocessing:test_punctuation.py -->
<g id="edge1" class="edge">
<title>//tests/unittest/preprocessing:test_punctuation&#45;&gt;//tests/unittest/preprocessing:test_punctuation.py</title>
<path fill="none" stroke="black" d="M235.03,-215.52C218.82,-206.51 198.86,-195.42 181.47,-185.76"/>
<polygon fill="black" stroke="black" points="183.33,-182.79 172.89,-181 179.93,-188.91 183.33,-182.79"/>
</g>
<!-- //src/preprocessing:punctuation -->
<g id="node3" class="node">
<title>//src/preprocessing:punctuation</title>
<polygon fill="none" stroke="black" points="485.5,-180 299.5,-180 299.5,-144 485.5,-144 485.5,-180"/>
<text text-anchor="middle" x="392.5" y="-158.3" font-family="Times,serif" font-size="14.00">//src/preprocessing:punctuation</text>
</g>
<!-- //tests/unittest/preprocessing:test_punctuation&#45;&gt;//src/preprocessing:punctuation -->
<g id="edge2" class="edge">
<title>//tests/unittest/preprocessing:test_punctuation&#45;&gt;//src/preprocessing:punctuation</title>
<path fill="none" stroke="black" d="M297.97,-215.52C314.18,-206.51 334.14,-195.42 351.53,-185.76"/>
<polygon fill="black" stroke="black" points="353.07,-188.91 360.11,-181 349.67,-182.79 353.07,-188.91"/>
</g>
<!-- //src/preprocessing/filter:filter -->
<g id="node7" class="node">
<title>//src/preprocessing/filter:filter</title>
<polygon fill="none" stroke="black" points="586,-108 407,-108 407,-72 586,-72 586,-108"/>
<text text-anchor="middle" x="496.5" y="-86.3" font-family="Times,serif" font-size="14.00">//src/preprocessing/filter:filter</text>
</g>
<!-- //src/preprocessing:punctuation&#45;&gt;//src/preprocessing/filter:filter -->
<g id="edge5" class="edge">
<title>//src/preprocessing:punctuation&#45;&gt;//src/preprocessing/filter:filter</title>
<path fill="none" stroke="black" d="M418.48,-143.52C431.48,-134.76 447.41,-124.04 461.47,-114.58"/>
<polygon fill="black" stroke="black" points="463.26,-117.59 469.6,-109.11 459.35,-111.79 463.26,-117.59"/>
</g>
<!-- //src/preprocessing:punctuation.py -->
<g id="node8" class="node">
<title>//src/preprocessing:punctuation.py</title>
<polygon fill="none" stroke="black" points="389,-108 186,-108 186,-72 389,-72 389,-108"/>
<text text-anchor="middle" x="287.5" y="-86.3" font-family="Times,serif" font-size="14.00">//src/preprocessing:punctuation.py</text>
</g>
<!-- //src/preprocessing:punctuation&#45;&gt;//src/preprocessing:punctuation.py -->
<g id="edge6" class="edge">
<title>//src/preprocessing:punctuation&#45;&gt;//src/preprocessing:punctuation.py</title>
<path fill="none" stroke="black" d="M366.27,-143.52C353.15,-134.76 337.07,-124.04 322.86,-114.58"/>
<polygon fill="black" stroke="black" points="324.91,-111.73 314.65,-109.1 321.03,-117.56 324.91,-111.73"/>
</g>
<!-- //tests/unittest/preprocessing:test_stop_words -->
<g id="node4" class="node">
<title>//tests/unittest/preprocessing:test_stop_words</title>
<polygon fill="none" stroke="black" points="1221.5,-252 959.5,-252 959.5,-216 1221.5,-216 1221.5,-252"/>
<text text-anchor="middle" x="1090.5" y="-230.3" font-family="Times,serif" font-size="14.00">//tests/unittest/preprocessing:test_stop_words</text>
</g>
<!-- //src/preprocessing:stop_words -->
<g id="node5" class="node">
<title>//src/preprocessing:stop_words</title>
<polygon fill="none" stroke="black" points="1058,-180 873,-180 873,-144 1058,-144 1058,-180"/>
<text text-anchor="middle" x="965.5" y="-158.3" font-family="Times,serif" font-size="14.00">//src/preprocessing:stop_words</text>
</g>
<!-- //tests/unittest/preprocessing:test_stop_words&#45;&gt;//src/preprocessing:stop_words -->
<g id="edge3" class="edge">
<title>//tests/unittest/preprocessing:test_stop_words&#45;&gt;//src/preprocessing:stop_words</title>
<path fill="none" stroke="black" d="M1059.28,-215.52C1043.2,-206.51 1023.4,-195.42 1006.14,-185.76"/>
<polygon fill="black" stroke="black" points="1008.08,-182.83 997.64,-181 1004.66,-188.94 1008.08,-182.83"/>
</g>
<!-- //tests/unittest/preprocessing:test_stop_words.py -->
<g id="node6" class="node">
<title>//tests/unittest/preprocessing:test_stop_words.py</title>
<polygon fill="none" stroke="black" points="1355,-180 1076,-180 1076,-144 1355,-144 1355,-180"/>
<text text-anchor="middle" x="1215.5" y="-158.3" font-family="Times,serif" font-size="14.00">//tests/unittest/preprocessing:test_stop_words.py</text>
</g>
<!-- //tests/unittest/preprocessing:test_stop_words&#45;&gt;//tests/unittest/preprocessing:test_stop_words.py -->
<g id="edge4" class="edge">
<title>//tests/unittest/preprocessing:test_stop_words&#45;&gt;//tests/unittest/preprocessing:test_stop_words.py</title>
<path fill="none" stroke="black" d="M1121.72,-215.52C1137.8,-206.51 1157.6,-195.42 1174.86,-185.76"/>
<polygon fill="black" stroke="black" points="1176.34,-188.94 1183.36,-181 1172.92,-182.83 1176.34,-188.94"/>
</g>
<!-- //src/preprocessing:stop_words.py -->
<g id="node9" class="node">
<title>//src/preprocessing:stop_words.py</title>
<polygon fill="none" stroke="black" points="1066.5,-108 864.5,-108 864.5,-72 1066.5,-72 1066.5,-108"/>
<text text-anchor="middle" x="965.5" y="-86.3" font-family="Times,serif" font-size="14.00">//src/preprocessing:stop_words.py</text>
</g>
<!-- //src/preprocessing:stop_words&#45;&gt;//src/preprocessing:stop_words.py -->
<g id="edge7" class="edge">
<title>//src/preprocessing:stop_words&#45;&gt;//src/preprocessing:stop_words.py</title>
<path fill="none" stroke="black" d="M965.5,-143.7C965.5,-136.41 965.5,-127.73 965.5,-119.54"/>
<polygon fill="black" stroke="black" points="969,-119.62 965.5,-109.62 962,-119.62 969,-119.62"/>
</g>
<!-- //src/preprocessing/filter:filter_words -->
<g id="node10" class="node">
<title>//src/preprocessing/filter:filter_words</title>
<polygon fill="none" stroke="black" points="1324.5,-108 1106.5,-108 1106.5,-72 1324.5,-72 1324.5,-108"/>
<text text-anchor="middle" x="1215.5" y="-86.3" font-family="Times,serif" font-size="14.00">//src/preprocessing/filter:filter_words</text>
</g>
<!-- //src/preprocessing:stop_words&#45;&gt;//src/preprocessing/filter:filter_words -->
<g id="edge8" class="edge">
<title>//src/preprocessing:stop_words&#45;&gt;//src/preprocessing/filter:filter_words</title>
<path fill="none" stroke="black" d="M1027.94,-143.52C1062.67,-133.79 1106.09,-121.64 1142.4,-111.47"/>
<polygon fill="black" stroke="black" points="1143.28,-114.86 1151.96,-108.79 1141.39,-108.12 1143.28,-114.86"/>
</g>
<!-- //src/preprocessing/filter:filter.py -->
<g id="node16" class="node">
<title>//src/preprocessing/filter:filter.py</title>
<polygon fill="none" stroke="black" points="594,-36 399,-36 399,0 594,0 594,-36"/>
<text text-anchor="middle" x="496.5" y="-14.3" font-family="Times,serif" font-size="14.00">//src/preprocessing/filter:filter.py</text>
</g>
<!-- //src/preprocessing/filter:filter&#45;&gt;//src/preprocessing/filter:filter.py -->
<g id="edge14" class="edge">
<title>//src/preprocessing/filter:filter&#45;&gt;//src/preprocessing/filter:filter.py</title>
<path fill="none" stroke="black" d="M496.5,-71.7C496.5,-64.41 496.5,-55.73 496.5,-47.54"/>
<polygon fill="black" stroke="black" points="500,-47.62 496.5,-37.62 493,-47.62 500,-47.62"/>
</g>
<!-- //src/preprocessing/filter:filter_words.py -->
<g id="node13" class="node">
<title>//src/preprocessing/filter:filter_words.py</title>
<polygon fill="none" stroke="black" points="1333.5,-36 1097.5,-36 1097.5,0 1333.5,0 1333.5,-36"/>
<text text-anchor="middle" x="1215.5" y="-14.3" font-family="Times,serif" font-size="14.00">//src/preprocessing/filter:filter_words.py</text>
</g>
<!-- //src/preprocessing/filter:filter_words&#45;&gt;//src/preprocessing/filter:filter_words.py -->
<g id="edge11" class="edge">
<title>//src/preprocessing/filter:filter_words&#45;&gt;//src/preprocessing/filter:filter_words.py</title>
<path fill="none" stroke="black" d="M1215.5,-71.7C1215.5,-64.41 1215.5,-55.73 1215.5,-47.54"/>
<polygon fill="black" stroke="black" points="1219,-47.62 1215.5,-37.62 1212,-47.62 1219,-47.62"/>
</g>
<!-- //tests/unittest/preprocessing:test_filter_word -->
<g id="node11" class="node">
<title>//tests/unittest/preprocessing:test_filter_word</title>
<polygon fill="none" stroke="black" points="1633.5,-180 1373.5,-180 1373.5,-144 1633.5,-144 1633.5,-180"/>
<text text-anchor="middle" x="1503.5" y="-158.3" font-family="Times,serif" font-size="14.00">//tests/unittest/preprocessing:test_filter_word</text>
</g>
<!-- //tests/unittest/preprocessing:test_filter_word&#45;&gt;//src/preprocessing/filter:filter_words -->
<g id="edge10" class="edge">
<title>//tests/unittest/preprocessing:test_filter_word&#45;&gt;//src/preprocessing/filter:filter_words</title>
<path fill="none" stroke="black" d="M1431.57,-143.52C1391.04,-133.67 1340.25,-121.32 1298.09,-111.07"/>
<polygon fill="black" stroke="black" points="1299.03,-107.7 1288.48,-108.74 1297.37,-114.5 1299.03,-107.7"/>
</g>
<!-- //tests/unittest/preprocessing:test_filter_word.py -->
<g id="node12" class="node">
<title>//tests/unittest/preprocessing:test_filter_word.py</title>
<polygon fill="none" stroke="black" points="1642.5,-108 1364.5,-108 1364.5,-72 1642.5,-72 1642.5,-108"/>
<text text-anchor="middle" x="1503.5" y="-86.3" font-family="Times,serif" font-size="14.00">//tests/unittest/preprocessing:test_filter_word.py</text>
</g>
<!-- //tests/unittest/preprocessing:test_filter_word&#45;&gt;//tests/unittest/preprocessing:test_filter_word.py -->
<g id="edge9" class="edge">
<title>//tests/unittest/preprocessing:test_filter_word&#45;&gt;//tests/unittest/preprocessing:test_filter_word.py</title>
<path fill="none" stroke="black" d="M1503.5,-143.7C1503.5,-136.41 1503.5,-127.73 1503.5,-119.54"/>
<polygon fill="black" stroke="black" points="1507,-119.62 1503.5,-109.62 1500,-119.62 1507,-119.62"/>
</g>
<!-- //tests/unittest/preprocessing:test_filter -->
<g id="node14" class="node">
<title>//tests/unittest/preprocessing:test_filter</title>
<polygon fill="none" stroke="black" points="784.5,-180 558.5,-180 558.5,-144 784.5,-144 784.5,-180"/>
<text text-anchor="middle" x="671.5" y="-158.3" font-family="Times,serif" font-size="14.00">//tests/unittest/preprocessing:test_filter</text>
</g>
<!-- //tests/unittest/preprocessing:test_filter&#45;&gt;//src/preprocessing/filter:filter -->
<g id="edge13" class="edge">
<title>//tests/unittest/preprocessing:test_filter&#45;&gt;//src/preprocessing/filter:filter</title>
<path fill="none" stroke="black" d="M627.79,-143.52C604.32,-134.13 575.18,-122.47 550.32,-112.53"/>
<polygon fill="black" stroke="black" points="551.94,-109.41 541.36,-108.94 549.34,-115.91 551.94,-109.41"/>
</g>
<!-- //tests/unittest/preprocessing:test_filter.py -->
<g id="node15" class="node">
<title>//tests/unittest/preprocessing:test_filter.py</title>
<polygon fill="none" stroke="black" points="846.5,-108 604.5,-108 604.5,-72 846.5,-72 846.5,-108"/>
<text text-anchor="middle" x="725.5" y="-86.3" font-family="Times,serif" font-size="14.00">//tests/unittest/preprocessing:test_filter.py</text>
</g>
<!-- //tests/unittest/preprocessing:test_filter&#45;&gt;//tests/unittest/preprocessing:test_filter.py -->
<g id="edge12" class="edge">
<title>//tests/unittest/preprocessing:test_filter&#45;&gt;//tests/unittest/preprocessing:test_filter.py</title>
<path fill="none" stroke="black" d="M684.85,-143.7C691.06,-135.64 698.58,-125.89 705.46,-116.98"/>
<polygon fill="black" stroke="black" points="708.04,-119.36 711.38,-109.3 702.5,-115.08 708.04,-119.36"/>
</g>
</g>
</svg>
